<mxfile host="app.diagrams.net" modified="2024-06-30T02:36:24.941Z" agent="Mozilla/5.0 (Windows NT 10.0; Win64; x64) AppleWebKit/537.36 (KHTML, like Gecko) Chrome/126.0.0.0 Safari/537.36" version="24.6.4" etag="5OzsiGeHLB9ZQZ0M4rUY" type="github">
  <diagram name="Page-1" id="VY2I3kaen7nUm6DG1UKE">
    <mxGraphModel>
      <root>
        <mxCell id="0" />
        <mxCell id="1" parent="0" />
      </root>
    </mxGraphModel>
  </diagram>
</mxfile>
